<mxfile host="app.diagrams.net" agent="Mozilla/5.0 (Windows NT 10.0; Win64; x64) AppleWebKit/537.36 (KHTML, like Gecko) Chrome/127.0.0.0 Safari/537.36 Edg/127.0.0.0" version="26.1.0">
  <diagram name="Page-1" id="xKuIFrpFUBuxblMh3zXH">
    <mxGraphModel dx="1002" dy="533" grid="1" gridSize="10" guides="1" tooltips="1" connect="1" arrows="1" fold="1" page="1" pageScale="1" pageWidth="827" pageHeight="1169" math="0" shadow="0">
      <root>
        <mxCell id="0" />
        <mxCell id="1" parent="0" />
        <mxCell id="5jWhK0xeSkvloxgt8Xc5-1" value="动态调整与优化" style="whiteSpace=wrap;strokeWidth=2;" vertex="1" parent="1">
          <mxGeometry x="20" y="1772" width="410" height="544" as="geometry" />
        </mxCell>
        <mxCell id="5jWhK0xeSkvloxgt8Xc5-2" value="实施与建设" style="whiteSpace=wrap;strokeWidth=2;" vertex="1" parent="1">
          <mxGeometry x="35" y="1234" width="468" height="488" as="geometry" />
        </mxCell>
        <mxCell id="5jWhK0xeSkvloxgt8Xc5-3" value="规划方案设计" style="whiteSpace=wrap;strokeWidth=2;" vertex="1" parent="1">
          <mxGeometry x="62" y="639" width="398" height="545" as="geometry" />
        </mxCell>
        <mxCell id="5jWhK0xeSkvloxgt8Xc5-4" value="规划目标设定" style="whiteSpace=wrap;strokeWidth=2;" vertex="1" parent="1">
          <mxGeometry x="56" y="20" width="422" height="569" as="geometry" />
        </mxCell>
        <mxCell id="5jWhK0xeSkvloxgt8Xc5-5" value="规划目标设定" style="whiteSpace=wrap;strokeWidth=2;" vertex="1" parent="1">
          <mxGeometry x="152" y="45" width="156" height="54" as="geometry" />
        </mxCell>
        <mxCell id="5jWhK0xeSkvloxgt8Xc5-6" value="分析县域经济发展需求" style="whiteSpace=wrap;strokeWidth=2;" vertex="1" parent="1">
          <mxGeometry x="203" y="149" width="220" height="54" as="geometry" />
        </mxCell>
        <mxCell id="5jWhK0xeSkvloxgt8Xc5-7" value="评估交通网络现状" style="whiteSpace=wrap;strokeWidth=2;" vertex="1" parent="1">
          <mxGeometry x="219" y="253" width="188" height="54" as="geometry" />
        </mxCell>
        <mxCell id="5jWhK0xeSkvloxgt8Xc5-8" value="预测未来交通发展趋势" style="whiteSpace=wrap;strokeWidth=2;" vertex="1" parent="1">
          <mxGeometry x="203" y="382" width="220" height="54" as="geometry" />
        </mxCell>
        <mxCell id="5jWhK0xeSkvloxgt8Xc5-9" value="明确枢纽功能定位与发展方向" style="whiteSpace=wrap;strokeWidth=2;" vertex="1" parent="1">
          <mxGeometry x="183" y="486" width="260" height="78" as="geometry" />
        </mxCell>
        <mxCell id="5jWhK0xeSkvloxgt8Xc5-10" value="规划方案设计" style="whiteSpace=wrap;strokeWidth=2;" vertex="1" parent="1">
          <mxGeometry x="152" y="664" width="156" height="54" as="geometry" />
        </mxCell>
        <mxCell id="5jWhK0xeSkvloxgt8Xc5-11" value="调研县域内外交通流量" style="whiteSpace=wrap;strokeWidth=2;" vertex="1" parent="1">
          <mxGeometry x="197" y="768" width="220" height="54" as="geometry" />
        </mxCell>
        <mxCell id="5jWhK0xeSkvloxgt8Xc5-12" value="分析产业布局与人口分布" style="whiteSpace=wrap;strokeWidth=2;" vertex="1" parent="1">
          <mxGeometry x="189" y="872" width="236" height="54" as="geometry" />
        </mxCell>
        <mxCell id="5jWhK0xeSkvloxgt8Xc5-13" value="优化枢纽空间布局" style="whiteSpace=wrap;strokeWidth=2;" vertex="1" parent="1">
          <mxGeometry x="213" y="1001" width="188" height="54" as="geometry" />
        </mxCell>
        <mxCell id="5jWhK0xeSkvloxgt8Xc5-14" value="设计枢纽功能配置" style="whiteSpace=wrap;strokeWidth=2;" vertex="1" parent="1">
          <mxGeometry x="213" y="1105" width="188" height="54" as="geometry" />
        </mxCell>
        <mxCell id="5jWhK0xeSkvloxgt8Xc5-15" value="实施与建设" style="whiteSpace=wrap;strokeWidth=2;" vertex="1" parent="1">
          <mxGeometry x="160" y="1259" width="140" height="54" as="geometry" />
        </mxCell>
        <mxCell id="5jWhK0xeSkvloxgt8Xc5-16" value="协同建设县域内其他交通基础设施" style="whiteSpace=wrap;strokeWidth=2;" vertex="1" parent="1">
          <mxGeometry x="208" y="1363" width="260" height="78" as="geometry" />
        </mxCell>
        <mxCell id="5jWhK0xeSkvloxgt8Xc5-17" value="确保与铁路、水路、航空运输方式的高效衔接" style="whiteSpace=wrap;strokeWidth=2;" vertex="1" parent="1">
          <mxGeometry x="208" y="1491" width="260" height="78" as="geometry" />
        </mxCell>
        <mxCell id="5jWhK0xeSkvloxgt8Xc5-18" value="建设客运站、货运站、物流中心等设施" style="whiteSpace=wrap;strokeWidth=2;" vertex="1" parent="1">
          <mxGeometry x="208" y="1619" width="260" height="78" as="geometry" />
        </mxCell>
        <mxCell id="5jWhK0xeSkvloxgt8Xc5-19" value="动态调整与优化" style="whiteSpace=wrap;strokeWidth=2;" vertex="1" parent="1">
          <mxGeometry x="144" y="1797" width="172" height="54" as="geometry" />
        </mxCell>
        <mxCell id="5jWhK0xeSkvloxgt8Xc5-20" value="实时监测交通流量与经济变化" style="whiteSpace=wrap;strokeWidth=2;" vertex="1" parent="1">
          <mxGeometry x="100" y="1901" width="260" height="78" as="geometry" />
        </mxCell>
        <mxCell id="5jWhK0xeSkvloxgt8Xc5-21" value="评估环境影响与政策调整" style="whiteSpace=wrap;strokeWidth=2;" vertex="1" parent="1">
          <mxGeometry x="112" y="2029" width="236" height="54" as="geometry" />
        </mxCell>
        <mxCell id="5jWhK0xeSkvloxgt8Xc5-22" value="优化枢纽功能与布局" style="whiteSpace=wrap;strokeWidth=2;" vertex="1" parent="1">
          <mxGeometry x="128" y="2133" width="204" height="54" as="geometry" />
        </mxCell>
        <mxCell id="5jWhK0xeSkvloxgt8Xc5-23" value="适应县域经济社会发展需求" style="whiteSpace=wrap;strokeWidth=2;" vertex="1" parent="1">
          <mxGeometry x="104" y="2237" width="252" height="54" as="geometry" />
        </mxCell>
        <mxCell id="5jWhK0xeSkvloxgt8Xc5-24" value="战略规划阶段" style="curved=1;startArrow=none;endArrow=block;exitX=0.23;exitY=1;entryX=0.23;entryY=0;rounded=0;" edge="1" parent="1" source="5jWhK0xeSkvloxgt8Xc5-5" target="5jWhK0xeSkvloxgt8Xc5-10">
          <mxGeometry relative="1" as="geometry">
            <Array as="points">
              <mxPoint x="148" y="124" />
              <mxPoint x="148" y="639" />
            </Array>
          </mxGeometry>
        </mxCell>
        <mxCell id="5jWhK0xeSkvloxgt8Xc5-25" value="设计实施阶段" style="curved=1;startArrow=none;endArrow=block;exitX=0.25;exitY=1;entryX=0.22;entryY=-0.01;rounded=0;" edge="1" parent="1" source="5jWhK0xeSkvloxgt8Xc5-10" target="5jWhK0xeSkvloxgt8Xc5-15">
          <mxGeometry relative="1" as="geometry">
            <Array as="points">
              <mxPoint x="154" y="743" />
              <mxPoint x="154" y="1234" />
            </Array>
          </mxGeometry>
        </mxCell>
        <mxCell id="5jWhK0xeSkvloxgt8Xc5-26" value="运营维护阶段" style="curved=1;startArrow=none;endArrow=block;exitX=0.1;exitY=0.99;entryX=0.18;entryY=-0.01;rounded=0;" edge="1" parent="1" source="5jWhK0xeSkvloxgt8Xc5-15" target="5jWhK0xeSkvloxgt8Xc5-19">
          <mxGeometry relative="1" as="geometry">
            <Array as="points">
              <mxPoint x="123" y="1338" />
              <mxPoint x="123" y="1772" />
            </Array>
          </mxGeometry>
        </mxCell>
        <mxCell id="5jWhK0xeSkvloxgt8Xc5-27" value="" style="curved=1;startArrow=none;endArrow=block;exitX=0.78;exitY=1;entryX=0.5;entryY=0;rounded=0;" edge="1" parent="1" source="5jWhK0xeSkvloxgt8Xc5-5" target="5jWhK0xeSkvloxgt8Xc5-6">
          <mxGeometry relative="1" as="geometry">
            <Array as="points">
              <mxPoint x="313" y="124" />
            </Array>
          </mxGeometry>
        </mxCell>
        <mxCell id="5jWhK0xeSkvloxgt8Xc5-28" value="" style="curved=1;startArrow=none;endArrow=block;exitX=0.5;exitY=1;entryX=0.5;entryY=0;rounded=0;" edge="1" parent="1" source="5jWhK0xeSkvloxgt8Xc5-6" target="5jWhK0xeSkvloxgt8Xc5-7">
          <mxGeometry relative="1" as="geometry">
            <Array as="points" />
          </mxGeometry>
        </mxCell>
        <mxCell id="5jWhK0xeSkvloxgt8Xc5-29" value="" style="curved=1;startArrow=none;endArrow=block;exitX=0.5;exitY=1;entryX=0.5;entryY=0;rounded=0;" edge="1" parent="1" source="5jWhK0xeSkvloxgt8Xc5-7" target="5jWhK0xeSkvloxgt8Xc5-8">
          <mxGeometry relative="1" as="geometry">
            <Array as="points" />
          </mxGeometry>
        </mxCell>
        <mxCell id="5jWhK0xeSkvloxgt8Xc5-30" value="" style="curved=1;startArrow=none;endArrow=block;exitX=0.5;exitY=1;entryX=0.5;entryY=0;rounded=0;" edge="1" parent="1" source="5jWhK0xeSkvloxgt8Xc5-8" target="5jWhK0xeSkvloxgt8Xc5-9">
          <mxGeometry relative="1" as="geometry">
            <Array as="points" />
          </mxGeometry>
        </mxCell>
        <mxCell id="5jWhK0xeSkvloxgt8Xc5-31" value="" style="curved=1;startArrow=none;endArrow=block;exitX=0.5;exitY=1;entryX=0.78;entryY=0;rounded=0;" edge="1" parent="1" source="5jWhK0xeSkvloxgt8Xc5-9" target="5jWhK0xeSkvloxgt8Xc5-10">
          <mxGeometry relative="1" as="geometry">
            <Array as="points">
              <mxPoint x="313" y="639" />
            </Array>
          </mxGeometry>
        </mxCell>
        <mxCell id="5jWhK0xeSkvloxgt8Xc5-32" value="" style="curved=1;startArrow=none;endArrow=block;exitX=0.76;exitY=1;entryX=0.5;entryY=0;rounded=0;" edge="1" parent="1" source="5jWhK0xeSkvloxgt8Xc5-10" target="5jWhK0xeSkvloxgt8Xc5-11">
          <mxGeometry relative="1" as="geometry">
            <Array as="points">
              <mxPoint x="307" y="743" />
            </Array>
          </mxGeometry>
        </mxCell>
        <mxCell id="5jWhK0xeSkvloxgt8Xc5-33" value="" style="curved=1;startArrow=none;endArrow=block;exitX=0.5;exitY=1;entryX=0.5;entryY=0;rounded=0;" edge="1" parent="1" source="5jWhK0xeSkvloxgt8Xc5-11" target="5jWhK0xeSkvloxgt8Xc5-12">
          <mxGeometry relative="1" as="geometry">
            <Array as="points" />
          </mxGeometry>
        </mxCell>
        <mxCell id="5jWhK0xeSkvloxgt8Xc5-34" value="" style="curved=1;startArrow=none;endArrow=block;exitX=0.5;exitY=1;entryX=0.5;entryY=-0.01;rounded=0;" edge="1" parent="1" source="5jWhK0xeSkvloxgt8Xc5-12" target="5jWhK0xeSkvloxgt8Xc5-13">
          <mxGeometry relative="1" as="geometry">
            <Array as="points" />
          </mxGeometry>
        </mxCell>
        <mxCell id="5jWhK0xeSkvloxgt8Xc5-35" value="" style="curved=1;startArrow=none;endArrow=block;exitX=0.5;exitY=0.99;entryX=0.5;entryY=-0.01;rounded=0;" edge="1" parent="1" source="5jWhK0xeSkvloxgt8Xc5-13" target="5jWhK0xeSkvloxgt8Xc5-14">
          <mxGeometry relative="1" as="geometry">
            <Array as="points" />
          </mxGeometry>
        </mxCell>
        <mxCell id="5jWhK0xeSkvloxgt8Xc5-36" value="" style="curved=1;startArrow=none;endArrow=block;exitX=0.5;exitY=0.99;entryX=0.79;entryY=-0.01;rounded=0;" edge="1" parent="1" source="5jWhK0xeSkvloxgt8Xc5-14" target="5jWhK0xeSkvloxgt8Xc5-15">
          <mxGeometry relative="1" as="geometry">
            <Array as="points">
              <mxPoint x="307" y="1234" />
            </Array>
          </mxGeometry>
        </mxCell>
        <mxCell id="5jWhK0xeSkvloxgt8Xc5-37" value="" style="curved=1;startArrow=none;endArrow=block;exitX=0.9;exitY=0.99;entryX=0.5;entryY=-0.01;rounded=0;" edge="1" parent="1" source="5jWhK0xeSkvloxgt8Xc5-15" target="5jWhK0xeSkvloxgt8Xc5-16">
          <mxGeometry relative="1" as="geometry">
            <Array as="points">
              <mxPoint x="338" y="1338" />
            </Array>
          </mxGeometry>
        </mxCell>
        <mxCell id="5jWhK0xeSkvloxgt8Xc5-38" value="" style="curved=1;startArrow=none;endArrow=block;exitX=0.5;exitY=0.99;entryX=0.5;entryY=-0.01;rounded=0;" edge="1" parent="1" source="5jWhK0xeSkvloxgt8Xc5-16" target="5jWhK0xeSkvloxgt8Xc5-17">
          <mxGeometry relative="1" as="geometry">
            <Array as="points" />
          </mxGeometry>
        </mxCell>
        <mxCell id="5jWhK0xeSkvloxgt8Xc5-39" value="" style="curved=1;startArrow=none;endArrow=block;exitX=0.5;exitY=0.99;entryX=0.5;entryY=-0.01;rounded=0;" edge="1" parent="1" source="5jWhK0xeSkvloxgt8Xc5-17" target="5jWhK0xeSkvloxgt8Xc5-18">
          <mxGeometry relative="1" as="geometry">
            <Array as="points" />
          </mxGeometry>
        </mxCell>
        <mxCell id="5jWhK0xeSkvloxgt8Xc5-40" value="" style="curved=1;startArrow=none;endArrow=block;exitX=0.5;exitY=0.99;entryX=0.83;entryY=-0.01;rounded=0;" edge="1" parent="1" source="5jWhK0xeSkvloxgt8Xc5-18" target="5jWhK0xeSkvloxgt8Xc5-19">
          <mxGeometry relative="1" as="geometry">
            <Array as="points">
              <mxPoint x="338" y="1772" />
            </Array>
          </mxGeometry>
        </mxCell>
        <mxCell id="5jWhK0xeSkvloxgt8Xc5-41" value="" style="curved=1;startArrow=none;endArrow=block;exitX=0.5;exitY=0.99;entryX=0.5;entryY=-0.01;rounded=0;" edge="1" parent="1" source="5jWhK0xeSkvloxgt8Xc5-19" target="5jWhK0xeSkvloxgt8Xc5-20">
          <mxGeometry relative="1" as="geometry">
            <Array as="points" />
          </mxGeometry>
        </mxCell>
        <mxCell id="5jWhK0xeSkvloxgt8Xc5-42" value="" style="curved=1;startArrow=none;endArrow=block;exitX=0.5;exitY=0.99;entryX=0.5;entryY=-0.01;rounded=0;" edge="1" parent="1" source="5jWhK0xeSkvloxgt8Xc5-20" target="5jWhK0xeSkvloxgt8Xc5-21">
          <mxGeometry relative="1" as="geometry">
            <Array as="points" />
          </mxGeometry>
        </mxCell>
        <mxCell id="5jWhK0xeSkvloxgt8Xc5-43" value="" style="curved=1;startArrow=none;endArrow=block;exitX=0.5;exitY=0.99;entryX=0.5;entryY=-0.01;rounded=0;" edge="1" parent="1" source="5jWhK0xeSkvloxgt8Xc5-21" target="5jWhK0xeSkvloxgt8Xc5-22">
          <mxGeometry relative="1" as="geometry">
            <Array as="points" />
          </mxGeometry>
        </mxCell>
        <mxCell id="5jWhK0xeSkvloxgt8Xc5-44" value="" style="curved=1;startArrow=none;endArrow=block;exitX=0.5;exitY=0.99;entryX=0.5;entryY=-0.01;rounded=0;" edge="1" parent="1" source="5jWhK0xeSkvloxgt8Xc5-22" target="5jWhK0xeSkvloxgt8Xc5-23">
          <mxGeometry relative="1" as="geometry">
            <Array as="points" />
          </mxGeometry>
        </mxCell>
      </root>
    </mxGraphModel>
  </diagram>
</mxfile>
